<svg xmlns="http://www.w3.org/2000/svg" xmlns:xlink="http://www.w3.org/1999/xlink" width="300" zoomAndPan="magnify" viewBox="0 0 224.87999 262.499992" height="350" preserveAspectRatio="xMidYMid meet" version="1.0"><defs><clipPath id="94dafdd3fa"><path d="M 148 26.03125 L 149 26.03125 L 149 27 L 148 27 Z M 148 26.03125 " clip-rule="nonzero"/></clipPath><clipPath id="d310fc1bc9"><path d="M 148 26.03125 L 150 26.03125 L 150 27 L 148 27 Z M 148 26.03125 " clip-rule="nonzero"/></clipPath><clipPath id="74bf55ed9c"><path d="M 147 26.03125 L 149 26.03125 L 149 28 L 147 28 Z M 147 26.03125 " clip-rule="nonzero"/></clipPath><clipPath id="2f4187d23f"><path d="M 144 26.03125 L 207 26.03125 L 207 52 L 144 52 Z M 144 26.03125 " clip-rule="nonzero"/></clipPath><clipPath id="cb3c6ad6db"><path d="M 149 26.03125 L 150 26.03125 L 150 27 L 149 27 Z M 149 26.03125 " clip-rule="nonzero"/></clipPath><clipPath id="e5799dcc40"><path d="M 41.015625 209 L 220 209 L 220 239.660156 L 41.015625 239.660156 Z M 41.015625 209 " clip-rule="nonzero"/></clipPath><clipPath id="0e8c84337c"><path d="M 3 83 L 89 83 L 89 208 L 3 208 Z M 3 83 " clip-rule="nonzero"/></clipPath><clipPath id="3c2cb4fc6f"><path d="M 1.390625 85.777344 L 82.160156 72.097656 L 104.023438 201.167969 L 23.253906 214.847656 Z M 1.390625 85.777344 " clip-rule="nonzero"/></clipPath><clipPath id="2b4bbdf741"><path d="M 81.886719 72.140625 L 1.117188 85.824219 L 22.980469 214.894531 L 103.75 201.214844 Z M 81.886719 72.140625 " clip-rule="nonzero"/></clipPath></defs><g clip-path="url(#94dafdd3fa)"><path fill="#ffffff" d="M 148.457031 26.867188 C 148.414062 26.871094 148.347656 26.878906 148.261719 26.890625 C 148.304688 26.886719 148.371094 26.878906 148.457031 26.867188 Z M 148.457031 26.867188 " fill-opacity="1" fill-rule="nonzero"/></g><g clip-path="url(#d310fc1bc9)"><path fill="#ffffff" d="M 149.25 26.765625 C 149.140625 26.777344 148.984375 26.796875 148.777344 26.824219 C 148.664062 26.835938 148.558594 26.851562 148.464844 26.867188 C 148.796875 26.820312 149.058594 26.789062 149.25 26.765625 " fill-opacity="1" fill-rule="nonzero"/></g><g clip-path="url(#74bf55ed9c)"><path fill="#ffffff" d="M 148.339844 26.878906 L 148.335938 26.878906 C 148.308594 26.878906 148.238281 26.890625 148.117188 26.90625 L 147.328125 27.046875 C 147.832031 26.964844 148.113281 26.921875 148.167969 26.910156 L 148.3125 26.886719 L 148.339844 26.878906 " fill-opacity="1" fill-rule="nonzero"/></g><g clip-path="url(#2f4187d23f)"><path fill="#ffffff" d="M 160.472656 26.03125 L 160.3125 26.03125 L 150.152344 26.671875 L 149.300781 26.757812 C 149.566406 26.730469 148.789062 26.847656 146.964844 27.109375 L 147.328125 27.046875 L 145.832031 27.242188 C 145.277344 27.324219 144.695312 27.453125 144.089844 27.625 L 146.785156 27.144531 C 146.621094 27.160156 146.679688 27.148438 146.964844 27.109375 L 146.785156 27.144531 C 147.136719 27.121094 147.496094 27.121094 147.855469 27.144531 C 154.316406 27.828125 157.878906 28.289062 158.550781 28.519531 C 164.855469 29.664062 170.859375 31.449219 176.566406 33.875 C 178.941406 35.023438 181.183594 36.203125 183.296875 37.417969 C 188.347656 40.515625 191.21875 42.410156 191.914062 43.109375 C 195.355469 45.738281 198.265625 48.496094 200.65625 51.390625 C 202.269531 49.761719 204.085938 48.675781 206.101562 48.132812 L 206.191406 46.988281 L 199.683594 41.382812 C 194.765625 37.789062 191.78125 35.695312 190.742188 35.089844 C 188.976562 33.957031 187.710938 33.261719 186.945312 33.003906 C 180.289062 30.621094 176.515625 29.332031 175.628906 29.128906 C 168.914062 27.0625 163.863281 26.03125 160.472656 26.03125 " fill-opacity="1" fill-rule="nonzero"/></g><path fill="#ffffff" d="M 144.089844 27.625 L 137.890625 28.730469 C 128.066406 31.511719 123.675781 33.347656 118.855469 37.453125 C 112.574219 42.800781 101.304688 58.007812 98.535156 65.558594 C 95.761719 73.105469 91.265625 85 87.804688 103.117188 C 84.347656 121.234375 81.488281 158.183594 79.421875 169.886719 C 77.558594 180.417969 75.871094 188.027344 74.289062 192.695312 C 72.636719 197.574219 70.289062 203.082031 65.867188 208.082031 C 59.601562 215.167969 49.085938 220.992188 49.085938 220.992188 C 56.105469 219.703125 63.796875 216.417969 71.53125 210.308594 C 76.816406 206.132812 77.933594 204.578125 81.3125 195.882812 C 83.679688 189.789062 85.132812 185.640625 87.339844 173.417969 C 89.644531 160.648438 94.953125 111.804688 95.640625 107.121094 C 96.058594 104.261719 96.546875 101.5 97.015625 98.824219 C 98.457031 90.664062 101.003906 82.203125 104.175781 73.261719 C 108.125 62.140625 111.753906 52.730469 117.371094 46.703125 C 127.675781 35.648438 137.125 29.820312 144.089844 27.625 Z M 144.089844 27.625 " fill-opacity="1" fill-rule="nonzero"/><g clip-path="url(#cb3c6ad6db)"><path fill="#ffffff" d="M 149.296875 26.761719 L 149.292969 26.761719 C 149.285156 26.761719 149.273438 26.761719 149.265625 26.761719 L 149.253906 26.765625 C 149.261719 26.765625 149.265625 26.761719 149.273438 26.761719 L 149.296875 26.761719 " fill-opacity="1" fill-rule="nonzero"/></g><path fill="#ffffff" d="M 206.742188 47.671875 L 206.714844 47.675781 C 206.621094 47.695312 206.4375 47.800781 206.164062 47.984375 L 206.367188 47.949219 L 206.660156 47.933594 L 206.699219 47.878906 C 206.722656 47.84375 206.738281 47.8125 206.753906 47.789062 C 206.765625 47.761719 206.773438 47.738281 206.777344 47.722656 L 206.78125 47.699219 L 206.777344 47.683594 L 206.761719 47.671875 L 206.742188 47.671875 " fill-opacity="1" fill-rule="nonzero"/><path fill="#ffffff" d="M 206.160156 47.984375 L 201.417969 48.804688 C 178.136719 68.058594 166.109375 78.949219 165.335938 81.472656 C 157.753906 92.136719 153.398438 99.300781 152.269531 102.972656 C 150.054688 107.710938 148.765625 112.972656 148.398438 118.761719 C 148.269531 122.589844 149.207031 126.867188 151.207031 131.585938 C 152.128906 133.726562 153.480469 136.25 155.261719 139.148438 C 160.492188 146.410156 164.660156 152.707031 167.769531 158.039062 C 171.945312 165.179688 174.988281 170.785156 176.902344 174.84375 C 181.980469 185.355469 188.226562 201.160156 195.636719 222.261719 L 195.429688 209.640625 L 187.234375 188.53125 C 183.574219 179.507812 179.71875 171.429688 175.667969 164.300781 C 173.539062 160.515625 170.886719 156.074219 167.703125 150.976562 C 162.21875 143.402344 158.542969 137.824219 156.679688 134.238281 C 153.410156 127.40625 151.964844 122.011719 152.34375 118.050781 C 152.796875 112.238281 154.046875 107.128906 156.089844 102.730469 C 157.160156 99.234375 161.152344 92.484375 168.066406 82.484375 C 174.117188 74.625 186.816406 63.128906 206.160156 47.984375 Z M 206.160156 47.984375 " fill-opacity="1" fill-rule="nonzero"/><path fill="#ffffff" d="M 205.371094 46.277344 C 205.113281 46.410156 204.835938 47.09375 204.835938 47.09375 C 204.40625 51.972656 203.386719 56.335938 202.15625 60.3125 C 201.835938 61.339844 198.960938 65.945312 193.484375 74.261719 C 192.914062 75.128906 192.792969 76.222656 192.703125 77.332031 C 192.617188 78.34375 192.652344 79.339844 192.863281 80.328125 L 195.429688 89 C 195.765625 90.386719 195.980469 91.457031 196.003906 92.21875 C 196.027344 93.082031 195.996094 93.589844 195.980469 93.742188 C 195.496094 98.386719 195.136719 102.425781 194.921875 105.863281 C 194.597656 111.132812 194.40625 115.378906 194.328125 118.59375 C 194.078125 129.113281 194.179688 136.96875 194.605469 142.160156 C 194.84375 145.027344 195.203125 148.070312 195.699219 151.296875 L 198.785156 166.105469 C 199.03125 167.394531 199.242188 168.875 199.191406 170.546875 C 199.042969 175.226562 197.003906 179.832031 193.300781 184.375 L 199.085938 180.121094 C 200.554688 177.699219 201.535156 174.941406 201.957031 171.832031 C 202.132812 170.539062 202.070312 169.042969 201.835938 167.359375 L 198.453125 150.90625 C 197.929688 147.558594 197.578125 144.445312 197.367188 141.570312 C 196.960938 135.960938 196.828125 128.859375 197.046875 120.265625 C 197.175781 115.113281 197.417969 110.3125 197.703125 105.867188 C 197.929688 102.347656 198.292969 98.320312 198.757812 93.769531 C 198.808594 93.28125 198.800781 92.851562 198.789062 92.476562 C 198.761719 91.546875 198.605469 90.492188 198.308594 89.3125 L 195.699219 80.460938 C 195.503906 79.496094 195.441406 78.648438 195.46875 77.917969 C 195.523438 76.578125 195.640625 75.261719 196.320312 74.222656 C 200.3125 68.101562 202.84375 64.488281 203.636719 63.183594 C 204.207031 62.25 204.925781 60.65625 205.683594 58.316406 C 206.371094 56.203125 207.535156 52.296875 207.453125 48.050781 Z M 205.371094 46.277344 " fill-opacity="1" fill-rule="nonzero"/><path fill="#ffffff" d="M 182.285156 234.269531 L 180.648438 234.4375 C 181.039062 234.402344 181.582031 234.347656 182.285156 234.269531 " fill-opacity="1" fill-rule="nonzero"/><g clip-path="url(#e5799dcc40)"><path fill="#ffffff" d="M 116.054688 209.753906 L 114.566406 209.769531 L 94.386719 211.195312 C 93.648438 211.246094 92.699219 211.339844 91.539062 211.472656 C 86.875 211.996094 81.785156 213.226562 76.269531 215.167969 C 67.945312 218.183594 56.210938 224.738281 41.066406 234.839844 L 70.964844 225.71875 C 83.367188 218.105469 93.59375 213.375 101.648438 211.527344 C 104.355469 211.667969 109.300781 212.914062 116.480469 215.265625 L 122.945312 217.820312 C 134.371094 223.136719 144.1875 227.550781 152.398438 231.066406 C 155.714844 232.480469 160.570312 234.140625 166.96875 236.054688 C 170.332031 237.011719 174.226562 237.761719 178.648438 238.304688 C 186.871094 239.128906 193.109375 239.476562 197.359375 239.347656 C 200.074219 239.328125 202.957031 239.230469 206.007812 239.054688 L 215.710938 238.3125 L 214.824219 238.394531 L 218.804688 238.070312 L 219.78125 237.789062 C 213.25 238.117188 206.683594 237.9375 200.078125 237.25 C 192.582031 236.285156 187.324219 235.347656 184.308594 234.441406 C 178.824219 232.890625 173.914062 231.203125 169.574219 229.375 L 141.558594 216.652344 L 134.535156 213.910156 C 126.78125 211.253906 120.625 209.871094 116.054688 209.753906 Z M 116.054688 209.753906 " fill-opacity="1" fill-rule="nonzero"/></g><path fill="#ffffff" d="M 133.855469 46.015625 L 133.792969 48.96875 C 133.605469 56.894531 133.683594 63.167969 134.03125 67.78125 C 134.21875 70.195312 134.429688 72.070312 134.65625 73.40625 C 135.058594 75.917969 135.46875 77.847656 135.886719 79.195312 C 136.84375 82.34375 138.089844 85.171875 139.625 87.675781 L 147.230469 93.722656 C 144.835938 90.894531 143.113281 88.570312 142.0625 86.75 C 140.570312 84.21875 139.40625 81.484375 138.574219 78.550781 C 137.929688 76.066406 137.546875 74.261719 137.414062 73.140625 C 137.207031 71.796875 137.03125 70.15625 136.890625 68.222656 C 136.5625 64.050781 136.449219 59.503906 136.546875 54.578125 Z M 133.855469 46.015625 " fill-opacity="1" fill-rule="nonzero"/><path fill="#ffffff" d="M 125.058594 52.238281 L 121.046875 62.699219 C 121.007812 71.480469 121.683594 79.746094 123.070312 87.5 C 125.402344 99.941406 128.363281 111.015625 131.957031 120.726562 C 138.027344 137.667969 150.003906 162.066406 167.890625 193.925781 L 162.832031 178.164062 C 151.097656 156.101562 144.265625 142.636719 142.339844 137.777344 C 138.53125 129.300781 135.050781 120.003906 131.898438 109.878906 C 125.703125 90.1875 123.421875 70.976562 125.058594 52.238281 Z M 125.058594 52.238281 " fill-opacity="1" fill-rule="nonzero"/><path fill="#ffffff" d="M 94.382812 148.921875 L 96.949219 149.3125 C 109.445312 151.25 117.839844 154.851562 122.128906 160.117188 C 123.671875 161.585938 125.683594 164.957031 128.164062 170.238281 C 134 185.195312 137.476562 193.277344 138.59375 194.484375 C 142.007812 200.273438 145.953125 204.988281 150.429688 208.632812 C 152.816406 211.09375 159.578125 215.5 170.707031 221.84375 C 174.105469 223.679688 177.78125 225.546875 181.734375 227.441406 L 188.640625 228.816406 C 180.445312 225.402344 171.269531 220.546875 161.105469 214.253906 C 156.355469 211.125 151.875 207.277344 147.664062 202.710938 C 145.410156 200.40625 142.789062 196.316406 139.800781 190.441406 L 129.128906 165.355469 C 127.777344 162.875 125.847656 160.480469 123.332031 158.167969 C 117.8125 153.238281 108.160156 150.15625 94.382812 148.921875 Z M 94.382812 148.921875 " fill-opacity="1" fill-rule="nonzero"/><path fill="#ffffff" d="M 171.589844 74.644531 C 171.554688 74.679688 171.519531 74.714844 171.484375 74.75 C 171.132812 75.097656 170.90625 75.324219 170.523438 75.722656 C 171.308594 76.265625 172.023438 76.730469 172.65625 77.117188 C 172.691406 77.140625 172.726562 77.160156 172.757812 77.179688 C 175.035156 78.527344 176.921875 79.390625 178.410156 79.769531 C 178.304688 79.8125 179.941406 80.132812 183.316406 80.738281 C 184.019531 80.859375 184.738281 80.941406 185.46875 80.980469 C 185.992188 81.019531 186.636719 81.035156 187.40625 81.035156 C 187.554688 81.035156 187.707031 81.035156 187.863281 81.035156 C 190.214844 80.949219 191.929688 80.898438 193.015625 80.878906 L 192.917969 80.542969 L 193.015625 80.878906 C 193.34375 80.875 193.617188 80.871094 193.828125 80.871094 C 194.140625 80.871094 194.324219 80.875 194.386719 80.890625 C 194.863281 80.898438 195.347656 80.925781 195.835938 80.964844 L 195.796875 80.835938 C 195.28125 80.742188 194.726562 80.644531 194.132812 80.539062 C 193.71875 80.476562 193.300781 80.425781 192.882812 80.382812 C 192.082031 80.304688 191.269531 80.265625 190.449219 80.265625 C 190.4375 80.265625 190.425781 80.265625 190.410156 80.265625 C 190.339844 80.261719 190.246094 80.261719 190.136719 80.261719 C 189.351562 80.261719 187.597656 80.3125 184.875 80.417969 C 184.578125 80.421875 184.296875 80.425781 184.03125 80.425781 C 183.671875 80.425781 183.34375 80.421875 183.046875 80.410156 C 182.503906 80.386719 182.019531 80.355469 181.589844 80.324219 C 179.808594 79.800781 178.101562 79.027344 176.460938 78.003906 C 175.671875 77.542969 174.71875 76.914062 173.597656 76.121094 L 173.59375 76.121094 C 173.269531 75.886719 172.929688 75.644531 172.574219 75.382812 C 172.246094 75.140625 171.917969 74.894531 171.589844 74.644531 Z M 179.921875 80.109375 L 180.253906 80.171875 C 180.132812 80.152344 180.023438 80.132812 179.921875 80.109375 Z M 179.921875 80.109375 " fill-opacity="1" fill-rule="nonzero"/><path fill="#ffffff" d="M 195.664062 80.808594 C 195.707031 80.816406 195.753906 80.824219 195.796875 80.835938 L 195.796875 80.832031 Z M 195.664062 80.808594 " fill-opacity="1" fill-rule="nonzero"/><g clip-path="url(#0e8c84337c)"><g clip-path="url(#3c2cb4fc6f)"><g clip-path="url(#2b4bbdf741)"><path fill="#ffffff" d="M 14.582031 84.832031 C 36.078125 79.929688 57.472656 91.179688 73.894531 104.066406 C 74.15625 104.273438 74.417969 104.480469 74.679688 104.6875 C 76.644531 106.25 78.644531 107.773438 80.625 109.316406 C 83.175781 111.300781 86.175781 113.015625 87.902344 115.84375 C 89.816406 118.972656 88.382812 123.792969 87.105469 127.894531 C 86.636719 129.386719 78.988281 170.496094 79.566406 173.855469 C 79.824219 175.367188 80.621094 177.140625 79.257812 178.414062 C 77.902344 179.679688 77.617188 177.566406 76.066406 178.554688 C 73.78125 180.007812 77.144531 183.417969 75.875 185.671875 C 73.574219 189.773438 70.503906 185.226562 68.109375 184.390625 C 66.582031 183.855469 66.257812 185.039062 65.03125 185.597656 C 63.582031 186.261719 63.332031 185.082031 62.121094 184.605469 C 58.480469 183.183594 56.960938 187.160156 56.488281 190.023438 C 56.203125 191.75 56.136719 193.53125 56.265625 195.277344 C 56.417969 197.359375 57.222656 199.355469 57.023438 201.464844 C 56.886719 202.925781 56.980469 206.222656 55.988281 207.367188 C 54.421875 209.171875 53.226562 206.621094 52.75 205.296875 C 52.085938 203.457031 51.917969 201.515625 52.003906 199.574219 C 52.070312 198.007812 52.828125 196.578125 53.183594 195.039062 C 53.964844 191.671875 54.019531 188.1875 54.070312 184.746094 C 54.09375 183.015625 53.988281 181.457031 53.296875 179.859375 C 52.71875 178.523438 51.65625 177.628906 50.898438 176.394531 C 50.207031 175.273438 50.691406 175.25 49.128906 175.359375 C 47.863281 175.453125 47.027344 175.707031 46.210938 174.554688 C 44.734375 172.46875 45.898438 169.273438 45.300781 166.984375 C 44.660156 164.519531 44.152344 163.578125 41.707031 162.949219 C 38.285156 162.066406 39.6875 159.355469 40.480469 156.871094 C 40.757812 156 41.164062 155.289062 40.910156 154.480469 C 40.675781 153.738281 40.226562 153.269531 40.027344 152.4375 C 39.839844 151.636719 39.824219 151.085938 39.386719 150.441406 C 38.875 149.695312 38.394531 149.546875 38.164062 148.539062 C 37.839844 147.097656 38.273438 145.46875 38.785156 144.125 C 39.394531 142.523438 39.675781 140.824219 40.4375 139.269531 C 40.789062 138.542969 41.214844 137.878906 41.527344 137.152344 C 41.949219 136.160156 42.890625 134.59375 42.839844 133.511719 C 40.773438 134.792969 37.78125 135.515625 35.445312 134.691406 C 33.960938 134.167969 32.328125 133.558594 30.949219 132.808594 C 29.835938 132.203125 29.847656 131.796875 29.289062 130.867188 C 28.171875 128.996094 25.640625 128.609375 25.046875 126.367188 C 24.835938 125.566406 25.109375 124.648438 24.828125 123.863281 C 24.414062 122.695312 23.382812 122.007812 22.445312 121.285156 C 20.679688 119.925781 20.390625 118.953125 19.542969 117.132812 C 18.792969 115.527344 16.539062 115.039062 15.773438 113.429688 C 15.050781 111.90625 15.417969 110.878906 14.074219 109.503906 C 12.761719 108.160156 12.449219 106.929688 11.507812 105.417969 C 10.742188 104.1875 9.1875 103.742188 8.53125 102.425781 C 7.097656 99.5625 3.945312 98.9375 3.242188 95.496094 C 2.011719 89.433594 9.914062 85.894531 14.582031 84.832031 Z M 42.917969 91.359375 C 41.433594 90.183594 39.925781 89.964844 38.199219 89.453125 C 36.371094 88.910156 34.5 88.496094 32.609375 88.238281 C 26.464844 87.417969 20.769531 88.308594 14.945312 90.210938 C 14.46875 90.367188 13.910156 90.621094 13.859375 91.117188 C 13.816406 91.507812 14.148438 91.863281 14.523438 91.988281 C 14.898438 92.117188 15.304688 92.070312 15.699219 92.039062 C 22.953125 91.410156 30.550781 91.707031 37.757812 92.902344 C 39.320312 93.160156 40.925781 93.464844 42.472656 93.121094 C 42.925781 93.019531 43.449219 92.773438 43.496094 92.308594 C 43.535156 91.921875 43.21875 91.597656 42.914062 91.359375 Z M 48.101562 119.132812 C 49.265625 119.003906 50.4375 118.910156 51.589844 118.691406 C 55.433594 117.972656 59.058594 116.429688 62.488281 114.574219 C 62.734375 114.441406 63.121094 114.160156 63.101562 113.832031 C 63.074219 113.367188 61.898438 113.0625 61.535156 112.929688 C 60.046875 112.390625 58.367188 111.738281 56.710938 111.605469 C 55.148438 111.476562 53.777344 112.082031 52.375 112.636719 C 51.265625 113.074219 50.15625 113.515625 49.046875 113.953125 C 46.636719 114.90625 44.480469 116.253906 42.308594 117.671875 C 41.59375 118.136719 40.847656 118.550781 40.144531 119.03125 C 39.726562 119.3125 39.304688 119.589844 38.9375 119.933594 C 38.800781 120.0625 38.652344 120.265625 38.605469 120.449219 C 38.4375 121.089844 39.320312 120.691406 39.589844 120.601562 C 39.945312 120.480469 40.300781 120.351562 40.667969 120.261719 C 41.46875 120.0625 42.324219 119.976562 43.140625 119.839844 C 44.789062 119.566406 46.441406 119.316406 48.101562 119.132812 Z M 48.230469 122.9375 C 47.414062 123.476562 46.195312 124.101562 45.835938 125.085938 C 45.746094 125.34375 45.742188 125.660156 45.882812 125.84375 C 45.972656 125.953125 46.113281 126.011719 46.320312 125.972656 C 50.480469 125.222656 54.761719 124.574219 58.589844 122.675781 C 60.980469 121.492188 63.089844 119.722656 65.664062 118.917969 C 66.460938 118.671875 67.238281 118.503906 68.066406 118.429688 C 70.105469 118.246094 72.140625 118.554688 74.171875 118.703125 C 75.109375 118.769531 76.089844 118.78125 77.042969 118.835938 C 77.972656 118.886719 78.945312 119.117188 79.863281 118.890625 C 80.179688 118.8125 80.660156 118.511719 80.3125 118.152344 C 79.835938 117.664062 78.773438 117.542969 78.148438 117.332031 C 76.375 116.734375 74.589844 116.019531 72.785156 115.46875 C 71.027344 114.9375 69.253906 114.347656 67.410156 114.210938 C 65.507812 114.066406 63.660156 114.765625 61.976562 115.578125 C 58.332031 117.339844 54.824219 119.394531 51.226562 121.246094 C 50.207031 121.773438 49.191406 122.304688 48.230469 122.9375 Z M 48.085938 112.828125 C 48.996094 112.601562 49.894531 112.347656 50.8125 112.148438 C 51.699219 111.957031 52.613281 111.769531 53.398438 111.289062 C 53.847656 111.011719 53.90625 110.585938 53.53125 110.226562 C 52.835938 109.546875 51.882812 109.085938 51.035156 108.625 C 50.136719 108.136719 49.195312 107.699219 48.195312 107.449219 C 47.949219 107.386719 47.699219 107.347656 47.441406 107.335938 C 46.765625 107.300781 46.101562 107.59375 45.503906 107.875 C 43.851562 108.648438 42.238281 109.519531 40.785156 110.617188 C 40.140625 111.105469 39.527344 111.628906 38.902344 112.140625 C 38.558594 112.421875 38.21875 112.710938 37.902344 113.027344 C 37.734375 113.195312 36.859375 113.898438 37.359375 114.128906 C 37.578125 114.226562 37.839844 114.140625 38.0625 114.113281 C 38.359375 114.074219 38.660156 114.074219 38.960938 114.058594 C 39.65625 114.027344 40.351562 114.003906 41.042969 113.96875 C 41.375 113.953125 41.707031 113.929688 42.039062 113.902344 C 44.082031 113.726562 46.097656 113.320312 48.085938 112.828125 Z M 40.90625 108.046875 C 42.066406 107.902344 43.207031 107.636719 44.335938 107.335938 C 45.125 107.128906 45.910156 106.601562 45.941406 105.710938 C 45.957031 105.296875 45.8125 104.898438 45.558594 104.566406 C 45.148438 104.023438 44.582031 103.785156 43.972656 103.742188 C 43.589844 103.714844 43.1875 103.769531 42.800781 103.875 C 42.101562 104.0625 41.460938 104.40625 40.824219 104.746094 C 40.007812 105.183594 39.183594 105.628906 38.464844 106.222656 C 38.113281 106.515625 37.175781 106.945312 37.398438 107.488281 C 37.621094 108.039062 38.4375 108.089844 38.949219 108.125 C 39.601562 108.175781 40.257812 108.125 40.90625 108.046875 Z M 41.828125 102.625 C 42.355469 102.621094 43.34375 102.601562 43.71875 102.152344 C 43.933594 101.898438 43.851562 101.265625 43.855469 100.960938 C 43.867188 100.480469 43.855469 99.996094 43.78125 99.523438 C 43.726562 99.171875 43.628906 98.8125 43.394531 98.546875 C 43.242188 98.378906 43.042969 98.257812 42.824219 98.1875 C 42.695312 98.144531 42.558594 98.117188 42.425781 98.105469 C 42.0625 98.074219 41.699219 98.144531 41.347656 98.234375 C 40.238281 98.511719 39.152344 99.011719 38.148438 99.539062 C 37.519531 99.867188 36.8125 100.195312 36.457031 100.847656 C 36.386719 100.976562 36.351562 101.136719 36.398438 101.277344 C 36.53125 101.691406 37.234375 101.886719 37.59375 102 C 38.089844 102.15625 38.597656 102.242188 39.105469 102.34375 C 40 102.519531 40.914062 102.632812 41.828125 102.625 Z M 42.878906 95.054688 C 42.390625 95.207031 41.0625 95.660156 41.292969 96.40625 C 41.554688 97.234375 42.289062 97.457031 43.074219 97.246094 C 43.671875 97.085938 44.222656 96.753906 44.714844 96.390625 C 45.050781 96.140625 45.636719 95.824219 45.578125 95.351562 C 45.566406 95.253906 45.527344 95.152344 45.453125 95.042969 C 44.988281 94.34375 43.5 94.867188 42.878906 95.054688 Z M 53.03125 94.546875 C 51.117188 92.875 48.664062 91.824219 46.128906 91.597656 C 44.199219 91.425781 45.035156 93.125 46.058594 93.792969 C 47.003906 94.410156 48.199219 94.65625 49.308594 94.785156 C 50.089844 94.875 50.867188 94.972656 51.652344 95.050781 C 51.859375 95.070312 52.800781 95.199219 53.148438 95.050781 C 53.324219 94.972656 53.34375 94.824219 53.03125 94.546875 Z M 82.355469 115.417969 C 81.402344 113.816406 79.253906 111.71875 78.855469 111.351562 C 75.210938 107.984375 70.71875 105.628906 66.550781 102.992188 C 61.890625 100.050781 56.664062 97.464844 51.34375 96.140625 C 48.773438 95.5 45.722656 95.363281 44.792969 98.417969 C 44.136719 100.574219 45.132812 103.121094 46.703125 104.636719 C 48.835938 106.695312 52.015625 107.9375 54.65625 109.203125 C 57.6875 110.65625 60.816406 111.933594 64.089844 112.714844 C 68.777344 113.832031 73.621094 114.367188 78.167969 116.03125 C 79.265625 116.433594 84.257812 118.609375 82.355469 115.417969 Z M 83.554688 120.261719 C 83.550781 120.242188 83.542969 120.222656 83.535156 120.207031 C 83.25 119.472656 81.484375 119.984375 80.921875 120.003906 C 80.101562 120.03125 79.25 120.183594 78.441406 120.15625 C 77.335938 120.125 76.234375 120.023438 75.128906 119.957031 C 72.925781 119.824219 70.71875 119.691406 68.511719 119.558594 C 66.347656 119.429688 64.300781 120.367188 62.382812 121.300781 C 61.050781 121.949219 59.902344 122.796875 58.632812 123.523438 C 56.40625 124.804688 54.054688 125.839844 51.683594 126.816406 C 50.457031 127.320312 49.210938 127.765625 47.980469 128.253906 C 46.890625 128.6875 45.5 129.101562 44.578125 129.84375 C 44.039062 130.28125 44.023438 130.914062 44.800781 130.972656 C 45.390625 131.015625 45.976562 130.847656 46.554688 130.773438 C 47.90625 130.605469 49.257812 130.417969 50.601562 130.191406 C 53.464844 129.707031 56.089844 128.351562 58.882812 127.589844 C 62.261719 126.667969 65.8125 126.375 69.175781 125.410156 C 72.554688 124.441406 76.066406 123.769531 79.417969 122.773438 C 80.097656 122.574219 83.855469 121.382812 83.554688 120.261719 Z M 46.851562 144.292969 C 46.832031 144.632812 47.097656 144.914062 47.4375 144.914062 C 47.949219 144.917969 48.550781 145.097656 48.761719 145.3125 C 48.859375 145.414062 49.007812 145.441406 49.128906 145.363281 C 52.585938 142.988281 56.238281 141.085938 60.027344 139.273438 L 60.339844 139.121094 C 60.753906 138.925781 61.171875 138.734375 61.589844 138.546875 C 62.902344 137.949219 64.132812 137.226562 65.421875 136.585938 C 65.714844 136.4375 66.855469 136.160156 67.011719 135.890625 C 67.621094 134.851562 68.320312 133.851562 69.003906 132.871094 C 69.148438 132.660156 69.3125 132.453125 69.460938 132.238281 C 69.640625 131.972656 69.433594 131.613281 69.117188 131.636719 C 67.695312 131.726562 66.148438 132.140625 64.777344 132.339844 C 63.132812 132.582031 61.488281 132.851562 59.894531 133.324219 C 56.992188 134.179688 54.324219 135.648438 51.746094 137.203125 C 49.800781 138.375 45.503906 139.359375 45.15625 142.054688 C 45.125 142.277344 45.207031 142.515625 45.402344 142.621094 C 45.925781 142.902344 46.488281 142.164062 46.875 142.84375 C 46.917969 142.917969 46.886719 143.679688 46.851562 144.292969 Z M 70.726562 143.121094 C 73.910156 141.566406 76.253906 138.269531 78.324219 135.363281 L 78.585938 134.992188 C 79.121094 134.242188 79.601562 133.429688 80.109375 132.574219 C 80.945312 131.152344 81.972656 129.890625 82.878906 128.542969 C 81.632812 127.335938 79.566406 128.519531 78.1875 128.820312 C 76.59375 129.167969 75.289062 130.042969 73.78125 130.605469 C 72.796875 130.972656 71.785156 131.007812 70.960938 131.726562 C 70.292969 132.304688 69.882812 133.136719 69.386719 133.851562 C 68.355469 135.355469 67.316406 136.910156 66.648438 138.613281 C 66.296875 139.511719 65.96875 140.546875 66.070312 141.519531 C 66.316406 143.863281 69.046875 143.941406 70.726562 143.121094 Z M 58.992188 129.894531 C 58.523438 129.496094 57.820312 129.65625 57.238281 129.851562 C 55.226562 130.523438 45.78125 133.492188 46.261719 136.4375 C 46.53125 138.082031 49.847656 136.089844 50.875 135.671875 C 53.171875 134.738281 55.417969 133.679688 57.632812 132.574219 C 58.167969 132.304688 58.722656 132.015625 59.0625 131.527344 C 59.40625 131.035156 59.445312 130.28125 58.992188 129.894531 Z M 85.523438 124.472656 C 85.648438 123.75 85.34375 123.121094 84.777344 122.839844 C 84.570312 122.734375 84.324219 122.679688 84.050781 122.683594 C 83.113281 122.695312 82.167969 123.117188 81.289062 123.421875 C 78.574219 124.367188 75.792969 125.003906 73.019531 125.738281 C 71.191406 126.21875 69.320312 126.519531 67.507812 127.070312 C 65.800781 127.585938 63.71875 128.292969 62.652344 129.828125 C 61.976562 130.808594 63.449219 130.835938 64.101562 130.71875 C 64.921875 130.570312 65.699219 130.179688 66.511719 130.042969 C 68.824219 129.648438 71.179688 129.613281 73.503906 129.304688 C 75.734375 129.007812 77.757812 128.136719 79.933594 127.628906 C 81.414062 127.285156 82.933594 126.984375 84.246094 126.175781 C 84.871094 125.792969 85.398438 125.191406 85.523438 124.472656 Z M 73.683594 173.019531 C 74.613281 172.417969 76.027344 170.84375 77.320312 166.746094 C 77.882812 164.957031 78.230469 163.109375 78.429688 161.246094 C 79.375 152.433594 80.976562 143.6875 83.222656 135.113281 C 83.628906 133.550781 84.441406 130.898438 83.285156 129.488281 C 82.050781 131.023438 81.066406 132.90625 79.84375 134.503906 C 78.636719 136.078125 77.433594 137.691406 76.699219 139.550781 C 75.679688 142.128906 75.628906 144.972656 75.519531 147.742188 C 75.355469 152.011719 75.019531 156.269531 74.519531 160.511719 C 74.140625 163.734375 73.972656 167.007812 73.234375 170.175781 C 73.214844 170.261719 72.984375 171.535156 72.820312 172.453125 C 72.734375 172.941406 73.269531 173.289062 73.683594 173.019531 Z M 70.96875 183.664062 C 71.371094 184.074219 71.859375 184.429688 72.417969 184.5625 C 72.980469 184.695312 73.625 184.574219 74.015625 184.148438 C 74.585938 183.535156 74.457031 182.574219 74.296875 181.753906 C 73.992188 180.242188 73.652344 176.75 72.199219 175.839844 C 70.6875 174.894531 69.542969 178.28125 69.441406 179.3125 C 69.28125 180.890625 69.859375 182.527344 70.96875 183.664062 Z M 67.707031 171.058594 C 67.867188 171.851562 67.925781 172.625 68.464844 173.273438 C 69.378906 174.378906 70.996094 174.453125 71.699219 173.097656 C 72.375 171.796875 72.441406 170.214844 72.640625 168.792969 C 72.863281 167.214844 72.578125 165.605469 72.914062 164.046875 C 73.921875 159.324219 74.1875 155.210938 74.46875 150.851562 C 74.679688 147.550781 74.898438 144.148438 75.472656 140.464844 C 75.378906 141.070312 73.753906 142.15625 73.285156 142.527344 C 72.804688 142.902344 71.769531 143.296875 71.363281 143.851562 C 71.289062 143.957031 71.234375 144.066406 71.210938 144.179688 C 70.007812 149.804688 68.933594 155.449219 67.863281 161.097656 C 67.46875 163.1875 66.800781 165.21875 66.816406 167.367188 C 66.828125 168.6875 67.449219 169.789062 67.707031 171.058594 Z M 66.753906 162.085938 C 67.117188 160.007812 67.496094 157.9375 67.890625 155.867188 C 68.285156 153.808594 68.695312 151.757812 69.125 149.707031 C 69.441406 148.195312 70.195312 146.667969 70.25 145.109375 C 70.292969 143.828125 69.054688 144.28125 68.230469 144.839844 C 67.996094 145 67.796875 145.167969 67.667969 145.308594 C 66.816406 146.242188 66.453125 147.53125 65.925781 148.652344 C 64.988281 150.648438 64.09375 152.664062 63.230469 154.695312 C 62.339844 156.78125 61.484375 158.878906 60.640625 160.984375 C 60.242188 161.988281 59.894531 163.035156 59.441406 164.015625 C 58.949219 165.085938 58.320312 165.882812 58.414062 167.128906 C 58.496094 168.199219 58.988281 169.21875 59.515625 170.132812 C 60.128906 171.195312 61.0625 171.953125 62.304688 171.460938 C 63.675781 170.917969 64.53125 169.371094 65.453125 168.335938 C 66.777344 166.847656 66.425781 163.96875 66.753906 162.085938 Z M 62.6875 183.058594 C 63.292969 183.4375 64.113281 183.351562 64.726562 182.980469 C 65.339844 182.613281 65.773438 182.007812 66.101562 181.371094 C 66.90625 179.804688 67.15625 177.996094 67.054688 176.234375 C 66.988281 175.0625 66.773438 173.90625 66.492188 172.769531 C 66.273438 171.890625 66.074219 170.238281 64.859375 171.316406 C 64.546875 171.589844 64.347656 171.972656 64.167969 172.347656 C 63.003906 174.753906 62.222656 177.34375 61.859375 179.996094 C 61.710938 181.105469 61.738281 182.460938 62.6875 183.058594 Z M 55.925781 183.496094 C 56.523438 183.773438 57.148438 183.195312 57.550781 182.671875 C 58.628906 181.257812 59.648438 179.765625 60.214844 178.078125 C 60.636719 176.828125 61.238281 170.929688 58.386719 172.304688 C 57.796875 172.589844 57.394531 173.152344 57.0625 173.714844 C 55.546875 176.273438 54.914062 179.339844 55.296875 182.289062 C 55.355469 182.761719 55.492188 183.296875 55.925781 183.496094 Z M 50.480469 173.75 C 51.78125 174.152344 53.242188 173.6875 54.292969 172.816406 C 55.339844 171.945312 56.03125 170.714844 56.554688 169.457031 C 57.398438 167.429688 55.640625 167.222656 54.128906 167.550781 C 52.289062 167.953125 50.589844 169.03125 49.488281 170.5625 C 49.179688 170.988281 48.910156 171.476562 48.921875 172 C 48.9375 172.835938 49.683594 173.5 50.480469 173.75 Z M 47.5625 169.070312 C 49.679688 166.351562 52.871094 164.398438 56.390625 165.640625 C 56.722656 165.757812 57.0625 165.90625 57.414062 165.875 C 58.183594 165.804688 58.199219 164.792969 58.421875 164.234375 C 59 162.773438 59.582031 161.3125 60.167969 159.855469 C 60.652344 158.644531 66.320312 143.902344 67.117188 144.210938 C 66.851562 144.105469 66.601562 143.976562 66.378906 143.8125 C 66.152344 143.644531 65.960938 143.449219 65.796875 143.234375 C 65.101562 143.835938 64.46875 144.363281 63.855469 144.867188 C 61.929688 146.460938 60.113281 148.117188 58.585938 150.105469 C 57.789062 151.148438 57 152.199219 56.207031 153.253906 C 54.367188 155.707031 52.496094 158.128906 50.546875 160.5 C 49.097656 162.265625 47.722656 163.742188 47.242188 166.066406 C 47.113281 166.695312 47.058594 167.339844 47.070312 167.980469 C 47.070312 168.136719 47.171875 168.597656 47.222656 168.976562 C 47.246094 169.144531 47.457031 169.203125 47.5625 169.070312 Z M 44.375 161.03125 C 45.007812 161.539062 45.835938 161.859375 46.578125 161.539062 C 47.320312 161.21875 47.824219 160.441406 47.894531 159.632812 C 47.964844 158.796875 47.507812 157.957031 46.765625 157.570312 C 45.03125 156.671875 42.703125 159.6875 44.375 161.03125 Z M 42.914062 157.921875 C 44 157.527344 44.730469 156.167969 45.945312 155.742188 C 47.285156 155.273438 48.4375 155.839844 49.277344 156.925781 C 49.90625 157.730469 49.847656 158.714844 49.632812 159.648438 C 49.578125 159.886719 49.859375 160.058594 50.039062 159.894531 C 51 159.019531 51.917969 157.421875 52.625 156.511719 C 53.597656 155.261719 54.554688 153.996094 55.507812 152.730469 C 56.300781 151.671875 57.089844 150.617188 57.890625 149.574219 C 59.738281 147.128906 62.070312 145.125 64.453125 143.230469 C 64.71875 143.019531 64.988281 142.800781 65.15625 142.507812 C 65.652344 141.65625 64.976562 139.667969 65.15625 138.40625 C 65.199219 138.085938 64.863281 137.855469 64.574219 137.996094 C 61.023438 139.726562 57.417969 141.324219 53.976562 143.28125 C 52.882812 143.902344 51.808594 144.558594 50.722656 145.199219 C 50.15625 145.535156 49.46875 145.800781 48.996094 146.273438 C 48.101562 147.179688 47.722656 148.523438 46.796875 149.476562 C 45.847656 150.457031 44.746094 151.296875 43.988281 152.449219 C 43.964844 152.480469 43.945312 152.511719 43.925781 152.542969 C 43.054688 153.917969 42.289062 156.328125 42.914062 157.921875 Z M 43.671875 144.554688 C 42.980469 144.554688 42.355469 145 41.914062 145.535156 C 41.113281 146.507812 40.574219 148.394531 41.199219 149.59375 C 41.96875 151.074219 43.257812 150.0625 44.335938 149.089844 C 45.070312 148.425781 45.609375 147.476562 45.542969 146.492188 C 45.476562 145.503906 44.660156 144.550781 43.671875 144.554688 Z M 32.476562 128.664062 C 35.511719 129.085938 38.609375 128.132812 41.253906 126.585938 C 42.851562 125.652344 44.3125 124.507812 45.710938 123.292969 C 46.195312 122.875 47.597656 122 47.796875 121.40625 C 48.078125 120.558594 46.996094 120.8125 46.433594 120.863281 C 42.996094 121.167969 39.625 122.203125 36.601562 123.863281 C 34.9375 124.773438 33.375 125.878906 31.964844 127.152344 C 31.707031 127.382812 31.429688 127.683594 31.488281 128.027344 C 31.5625 128.441406 32.0625 128.605469 32.476562 128.664062 Z M 26.867188 121.597656 C 27.027344 122.023438 27.601562 122.0625 28.054688 122.027344 C 31.300781 121.78125 34.703125 121.484375 37.410156 119.683594 C 38.011719 119.285156 42.726562 115.546875 42.484375 115.109375 C 42.261719 114.703125 38.957031 115.175781 38.472656 115.230469 C 37.148438 115.382812 35.835938 115.660156 34.59375 116.152344 C 32.992188 116.789062 31.546875 117.765625 30.113281 118.730469 C 29.257812 119.308594 28.398438 119.890625 27.539062 120.46875 C 27.144531 120.734375 26.695312 121.15625 26.867188 121.597656 Z M 21.652344 116.324219 C 21.746094 116.605469 22.105469 116.675781 22.398438 116.691406 C 27.507812 116.953125 32.582031 115.117188 36.609375 112.023438 C 37.632812 111.238281 39.105469 110.210938 39.734375 109.078125 C 36.71875 108.671875 33.058594 109.714844 30.257812 110.753906 C 27.257812 111.863281 24.449219 113.5 22.023438 115.585938 C 21.800781 115.777344 21.558594 116.046875 21.652344 116.324219 Z M 20.886719 108.648438 C 23.976562 108.078125 27.15625 108.148438 30.265625 107.6875 C 31.765625 107.464844 33.257812 107.105469 34.660156 106.515625 C 35.355469 106.21875 38.523438 104.800781 38.476562 103.859375 C 38.433594 102.980469 34.867188 102.484375 34.152344 102.402344 C 32.539062 102.21875 30.898438 102.304688 29.304688 102.59375 C 26.195312 103.15625 23.265625 104.429688 20.410156 105.78125 C 18.902344 106.496094 17.351562 107.28125 16.332031 108.601562 C 17.691406 109.347656 19.359375 108.929688 20.886719 108.648438 Z M 13.90625 101.222656 C 18.28125 101.089844 22.667969 100.953125 26.992188 100.277344 C 30.40625 99.746094 33.789062 98.867188 36.941406 97.429688 C 37.378906 97.230469 39.089844 96.671875 39.261719 96.226562 C 39.453125 95.742188 38.519531 95.207031 38.117188 94.980469 C 36.984375 94.34375 35.628906 94.164062 34.351562 94.082031 C 26.996094 93.625 19.511719 95.480469 13.226562 99.324219 C 12.78125 99.597656 12.277344 100.011719 12.382812 100.527344 C 12.503906 101.125 13.296875 101.242188 13.90625 101.222656 Z M 13.90625 101.222656 " fill-opacity="1" fill-rule="nonzero"/></g></g></g></svg>